<svg width="183" height="174" viewBox="0 0 183 174" fill="none" xmlns="http://www.w3.org/2000/svg">
<path d="M39.478 158.647L27.9018 35.1983H155.097L143.511 158.627L91.4214 172.359L39.478 158.647Z" fill="#1572B6"/>
<path d="M91.5014 161.864L133.59 150.768L143.492 45.293H91.5014V161.864Z" fill="#33A9DC"/>
<path d="M91.5 90.0178H112.571L114.028 74.5141H91.5V59.3734H131.43L131.048 63.4352L127.135 105.157H91.5V90.0178Z" fill="white"/>
<path d="M91.5958 129.339L91.5257 129.358L73.7919 124.804L72.6567 112.729H56.6742L58.906 136.502L91.5229 145.111L91.5972 145.09L91.5958 129.339Z" fill="#EBEBEB"/>
<path d="M111.218 104.517L109.3 124.793L91.54 129.351V145.104L124.184 136.502L124.424 133.943L127.195 104.517H111.218Z" fill="white"/>
<path d="M91.5558 59.3734V74.5128H53.0929L52.7726 71.1103L52.0478 63.4352L51.666 59.3734H91.5558ZM91.5 90.0192V105.16H73.9906L73.6718 101.757L72.9455 94.081L72.5638 90.0192H91.5Z" fill="#EBEBEB"/>
</svg>
