<svg width="131" height="168" viewBox="0 0 131 168" fill="none" xmlns="http://www.w3.org/2000/svg">
<path d="M130.761 32.9327L118.87 154.097L65.4147 167.576L12.1073 154.116L0.227692 32.9327H130.761Z" fill="#E44D26"/>
<path d="M65.4946 157.273L108.689 146.382L118.851 42.8409H65.4946V157.273Z" fill="#F16529"/>
<path d="M42.377 72.5667H65.4946V57.704H24.518L24.9089 61.6914L28.9256 102.649H65.4946V87.7863H43.8706L42.377 72.5667ZM46.0601 110.08H29.6557L31.945 133.417L65.4194 141.868L65.4946 141.85V126.386L65.423 126.403L47.2236 121.934L46.0601 110.08Z" fill="#EBEBEB"/>
<path d="M65.4383 102.649H85.561L83.6637 121.925L65.4378 126.399V141.861L98.9388 133.417L99.1844 130.906L103.025 91.7773L103.424 87.7863H65.4383V102.649ZM65.4383 72.5304V72.5667H104.911L105.238 69.2262L105.983 61.6914L106.373 57.704H65.4383V72.5304Z" fill="white"/>
</svg>
