<svg width="132" height="168" viewBox="0 0 132 168" fill="none" xmlns="http://www.w3.org/2000/svg">
<path d="M132 32.9213H0L12.3747 154.25L65.9933 168L119.612 154.25L132 32.9213Z" fill="#E6A329"/>
<path d="M65.9933 42.8063V157.718L109.437 146.591L120.005 42.8063H65.9933Z" fill="#F1BF22"/>
<path d="M100.555 57.6908H33.7586L29.1061 103.113L29.2019 102.83H85.9491L84.1008 122.049L65.995 126.758L47.622 121.973L46.5214 110.341H29.8437L32.2229 133.584L65.995 142.252L99.7822 133.584L104.435 87.9611H44.2095L44.9824 72.7606H86.7673L87.3923 81.4699H104.211L100.555 57.6908Z" fill="white"/>
<path d="M66.0084 57.6908H33.7586L29.1061 103.113L29.2019 102.83H66.0067V88.0128H46.5584L47.3313 72.8123H66.0084V57.6908ZM46.5584 110.349H29.8421L32.2212 133.579L65.9933 142.238V126.78L47.6203 121.982L46.5584 110.349Z" fill="#EBEBEB"/>
</svg>
